<?xml version="1.0" encoding="utf-8"?>
<!-- Generator: Adobe Illustrator 16.0.3, SVG Export Plug-In . SVG Version: 6.00 Build 0)  -->
<!DOCTYPE svg PUBLIC "-//W3C//DTD SVG 1.1//EN" "http://www.w3.org/Graphics/SVG/1.1/DTD/svg11.dtd">
<svg version="1.1" id="Capa_1" xmlns="http://www.w3.org/2000/svg" xmlns:xlink="http://www.w3.org/1999/xlink" x="0px" y="0px"
	 width="710px" height="190px" viewBox="0 0 710 190" enable-background="new 0 0 710 190" xml:space="preserve">
<g>
	<path fill="#0C304D" d="M392.613,32.482v33.717c0,9.606-4.427,16.673-14.598,16.673c-9.983,0-14.41-7.067-14.41-16.673V32.482
		c0-9.609,4.427-16.672,14.41-16.672C388.187,15.81,392.613,22.873,392.613,32.482z M367.939,32.2v34.282
		c0,7.159,2.824,12.43,10.076,12.43c7.347,0,10.266-5.271,10.266-12.43V32.2c0-7.159-2.919-12.435-10.266-12.435
		C370.764,19.765,367.939,25.041,367.939,32.2z M377.733,11.948h-3.297L381.122,3h4.522L377.733,11.948z"/>
	<path fill="#0C304D" d="M458.521,32.385v7.159c0,10.457-4.803,15.638-15.257,15.638h-8.192v27.124h-4.334V16.373h13.657
		C454.567,16.373,458.521,22.779,458.521,32.385z M454.189,39.828v-7.726c0-7.159-2.448-11.771-9.795-11.771h-9.323v30.89h8.192
		C450.893,51.221,454.189,47.833,454.189,39.828z"/>
	<path fill="#0C304D" d="M507.568,20.332H494.1v-3.959h31.177v3.959H511.9v61.973h-4.332V20.332z"/>
	<path fill="#0C304D" d="M566.224,82.305h-4.332V16.373h4.332V82.305z"/>
	<path fill="#0C304D" d="M632.882,32.482v5.461h-4.144V32.2c0-7.067-2.73-12.435-9.983-12.435s-9.983,5.368-9.983,12.435v34.282
		c0,7.063,2.73,12.338,9.983,12.338s9.983-5.274,9.983-12.338v-7.818h4.144v7.536c0,9.513-4.144,16.673-14.222,16.673
		c-10.077,0-14.221-7.16-14.221-16.673V32.482c0-9.513,4.144-16.672,14.221-16.672C628.738,15.81,632.882,22.969,632.882,32.482z"/>
	<path fill="#0C304D" d="M673.922,82.305h-3.954l14.409-66.026h6.311l14.694,66.026h-4.332l-3.298-14.601h-20.531L673.922,82.305z
		 M697.092,63.938l-9.699-42.665l-9.514,42.665H697.092z"/>
</g>
<g>
	<path fill="#0C304D" d="M377.508,180.099c7.196,0,9.812-5.416,9.812-12.426V118.05h4.019v49.438
		c0,9.343-3.923,16.537-13.922,16.537c-10,0-14.02-7.194-14.02-16.537V118.05h4.299v49.623
		C367.695,174.683,370.313,180.099,377.508,180.099z"/>
	<path fill="#0C304D" d="M445.553,132.817v5.7c0,7.661-2.991,12.055-9.438,13.549c6.728,1.495,9.438,6.26,9.438,13.365v10.184
		c0,2.712,0.186,5.699,1.589,7.85h-4.486c-1.121-1.961-1.401-4.298-1.401-7.85v-10.28c0-8.689-4.766-11.117-12.242-11.117h-6.822
		v29.247h-4.298V118.05h13.644C441.534,118.05,445.553,123.563,445.553,132.817z M441.254,139.356v-6.167
		c0-7.009-2.711-11.215-9.813-11.215h-9.252v28.317h6.917C436.769,150.292,441.254,148.141,441.254,139.356z"/>
	<path fill="#0C304D" d="M501.633,134.032v33.455c0,4.484-0.934,8.409-3.08,11.307c1.119,1.961,2.802,2.614,5.138,2.614h1.028v3.833
		h-1.122c-3.646,0-6.168-1.217-7.756-3.833c-2.149,1.592-4.953,2.616-8.597,2.616c-10,0-14.392-7.005-14.392-16.537v-33.455
		c0-9.532,4.392-16.542,14.392-16.542C497.241,117.49,501.633,124.5,501.633,134.032z M477.151,133.749v34.018
		c0,7.102,2.896,12.332,10.093,12.332c7.194,0,10.092-5.23,10.092-12.332v-34.018c0-7.102-2.897-12.333-10.092-12.333
		C480.048,121.416,477.151,126.647,477.151,133.749z"/>
	<path fill="#0C304D" d="M544.354,180.099c7.196,0,9.813-5.416,9.813-12.426V118.05h4.019v49.438
		c0,9.343-3.924,16.537-13.926,16.537c-9.999,0-14.018-7.194-14.018-16.537V118.05h4.3v49.623
		C534.542,174.683,537.157,180.099,544.354,180.099z"/>
	<path fill="#0C304D" d="M589.037,183.465h-4.301V118.05h4.301V183.465z"/>
	<path fill="#0C304D" d="M615.121,183.465v-3.925l25.326-57.565h-24.111v-3.925h28.596v4.019l-25.326,57.472h24.953v3.925H615.121z"
		/>
	<path fill="#0C304D" d="M674.098,183.465h-3.923l14.299-65.509h6.258l14.582,65.509h-4.301l-3.271-14.483H677.37L674.098,183.465z
		 M697.087,165.242l-9.625-42.332l-9.438,42.332H697.087z"/>
</g>
<path fill="#12837D" d="M188.106,63.167V25.493c-39.456,0-71.417,31.99-71.417,71.429c0,39.454,31.961,71.417,71.417,71.417V130.65
	c-17.949-0.81-32.239-15.608-32.239-33.729C155.867,78.774,170.157,63.979,188.106,63.167z"/>
<path fill="#62BA5A" d="M188.072,25.5v37.677c8.622,0.388,16.384,3.99,22.128,9.646l26.19-28.493
	C223.677,32.644,206.716,25.5,188.072,25.5z"/>
<path fill="#8ACE7B" d="M236.406,44.376l-26.179,28.519c6.233,6.133,10.113,14.651,10.113,24.081h39.179
	C259.52,76.165,250.608,57.436,236.406,44.376z"/>
<path fill="#B1DFA1" d="M220.356,96.976c-0.013,9.43-3.89,17.959-10.146,24.067l26.151,28.556
	c14.221-13.036,23.145-31.754,23.174-52.566L220.356,96.976z"/>
<path fill="#D8F0CE" d="M210.23,120.962c-5.742,5.656-13.506,9.257-22.125,9.646V168.3c18.64,0,35.604-7.147,48.318-18.819
	L210.23,120.962z"/>
<path fill="#12837D" d="M15.402,83.322L4.908,99.239c0,0-3.828,7.147,2.549,11.225c0,0,6.892,4.854,13.017-4.59
	c0,0,99.523-151.838,233.5-40.066c0,0,5.741,7.846,12.631,3.448c0,0,7.849-6.509-3.636-15.89
	C262.969,53.366,143.507-70.686,15.402,83.322"/>
<path fill="#12837D" d="M57.18,121.635c0,0-7.599-11.781-1.998-19.965c5.601-8.186,13.679,5.022,13.679,5.022
	s108.944,119.177,249.97,27.902c0,0,5.734-5.211,8.993,0.559c3.257,5.77,0.017,12.109-4.545,15.647
	C323.278,150.801,195.645,247.385,57.18,121.635"/>
</svg>
